<?xml version="1.0" standalone="no"?>
<!DOCTYPE svg PUBLIC "-//W3C//DTD SVG 20010904//EN"
 "http://www.w3.org/TR/2001/REC-SVG-20010904/DTD/svg10.dtd">
<svg version="1.0" xmlns="http://www.w3.org/2000/svg"
 width="120.000000pt" height="120.000000pt" viewBox="0 0 120.000000 120.000000"
 preserveAspectRatio="xMidYMid meet">

<g transform="translate(0.000000,120.000000) scale(0.100000,-0.100000)"
fill="#000000" stroke="none">
<path d="M291 827 c-36 -11 -101 -67 -101 -86 0 -19 31 -12 62 14 16 13 48 30
71 36 23 6 48 13 55 15 8 2 12 10 10 17 -6 16 -54 18 -97 4z"/>
<path d="M814 829 c-9 -15 4 -24 52 -37 23 -7 58 -23 78 -37 42 -28 56 -31 56
-11 0 48 -163 122 -186 85z"/>
<path d="M317 681 c-44 -9 -51 -15 -44 -35 4 -10 16 -13 44 -9 36 5 39 3 48
-28 21 -70 115 -58 115 15 0 18 -6 38 -13 44 -17 15 -104 22 -150 13z"/>
<path d="M762 681 c-40 -10 -46 -16 -39 -35 4 -10 16 -13 44 -9 36 5 39 3 48
-28 21 -71 115 -58 115 16 0 23 -6 38 -18 44 -27 15 -112 21 -150 12z"/>
<path d="M772 406 c-31 -53 -70 -67 -216 -80 -101 -9 -131 -15 -139 -28 -19
-30 8 -45 93 -53 97 -9 207 8 252 39 46 31 80 84 76 121 -5 45 -39 46 -66 1z"/>
</g>
</svg>
